Coordinates
version=1
nRows=4
nColumns=63
inDegrees=yes

Units are S.I. units (second, meters, Newtons, ...)
If the header above contains a line with 'inDegrees', this indicates whether rotational values are in degrees (yes) or radians (no).

endheader
time	pelvis_tilt	pelvis_list	pelvis_rotation	pelvis_tx	pelvis_ty	pelvis_tz	hip_flexion_r	hip_adduction_r	hip_rotation_r	knee_angle_r	knee_angle_r_beta	ankle_angle_r	subtalar_angle_r	mtp_angle_r	hip_flexion_l	hip_adduction_l	hip_rotation_l	knee_angle_l	knee_angle_l_beta	ankle_angle_l	subtalar_angle_l	mtp_angle_l	L5_S1_Flex_Ext	L5_S1_Lat_Bending	L5_S1_axial_rotation	L4_L5_Flex_Ext	L4_L5_Lat_Bending	L4_L5_axial_rotation	L3_L4_Flex_Ext	L3_L4_Lat_Bending	L3_L4_axial_rotation	L2_L3_Flex_Ext	L2_L3_Lat_Bending	L2_L3_axial_rotation	L1_L2_Flex_Ext	L1_L2_Lat_Bending	L1_L2_axial_rotation	L1_T12_Flex_Ext	L1_T12_Lat_Bending	L1_T12_axial_rotation	Abs_r3	Abs_r2	Abs_r1	Abs_t1	Abs_t2	neck_flexion	neck_bending	neck_rotation	arm_flex_r	arm_add_r	arm_rot_r	elbow_flex_r	pro_sup_r	wrist_flex_r	wrist_dev_r	arm_flex_l	arm_add_l	arm_rot_l	elbow_flex_l	pro_sup_l	wrist_flex_l	wrist_dev_l
      0.00000000	     -3.48678209	     -3.48598898	     94.91805488	      0.18428213	      0.76253518	      0.78977981	      3.24548605	     -4.97874562	    -12.47278331	     10.17485718	      0.17758476	     33.40492358	     12.89839145	      0.00000000	      4.71213916	      4.32382983	      4.84127562	      6.87860549	      0.12005431	     31.35636556	      1.91884908	      0.00000000	      0.12614886	     -0.14477049	     -0.56747471	      0.23427105	     -0.19254475	     -0.60294188	      0.20724997	     -0.35199497	     -0.60294188	      0.14417554	     -0.35199497	     -0.49654037	      0.11714183	     -0.29521598	     -0.46107320	      0.07208146	     -0.22424949	     -0.42560603	      0.90106872	     -1.63767272	     -3.15612407	      0.00000000	      0.00000000	     17.06614833	     -0.17480985	     13.48775963	     23.20950123	    -92.64877950	      1.01637841	      6.16632750	     54.24085112	    -12.57971115	      9.99449642	    -89.16859420	    -75.12197246	    -97.74546472	      7.21237728	     53.98389626	    -12.67038650	     11.03794046
      0.01886792	     -2.92895969	     -3.44086553	     95.79520371	      0.18247268	      0.76208837	      0.78843257	      2.85769127	     -4.40885790	    -13.23782625	      9.92638150	      0.17324804	     33.73042473	     13.19917654	      0.00000000	      4.62242253	      3.84463087	      6.08687251	      7.18291035	      0.12536544	     31.22053445	      1.30862468	      0.00000000	      0.15662938	     -0.08586879	     -0.75856409	      0.29087642	     -0.11420548	     -0.80597435	      0.25732641	     -0.20878136	     -0.80597435	      0.17901172	     -0.20878136	     -0.66374358	      0.14544604	     -0.17510363	     -0.61633333	      0.08949803	     -0.13301075	     -0.56892307	      1.11878799	     -0.97136487	     -4.21890591	      0.00000000	      0.00000000	     16.80612611	     -0.05284360	     12.90139603	     20.43614378	    -92.72138984	      3.97602408	      6.67821404	     56.23441975	    -10.54451520	     10.81522332	    -92.99589827	    -75.61020601	    -88.07351338	      7.56658435	     62.25619229	     -6.84943790	      8.44929996
      0.03773585	     -2.58718130	     -3.37044407	     96.55026222	      0.18111340	      0.76196489	      0.78731420	      2.48159936	     -4.02566105	    -13.72851769	      9.67578801	      0.16887436	     33.97648558	     13.16713839	      0.00000000	      4.52434319	      3.55313164	      7.02356173	      7.38662258	      0.12892088	     31.15050720	      0.98675292	      0.00000000	      0.18104851	     -0.05345654	     -0.90208689	      0.33622519	     -0.07109720	     -0.95846732	      0.29744460	     -0.12997423	     -0.95846732	      0.20692034	     -0.12997423	     -0.78932603	      0.16812165	     -0.10900858	     -0.73294560	      0.10345112	     -0.08280418	     -0.67656517	      1.29321141	     -0.60471107	     -5.01713666	      0.00000000	      0.00000000	     16.59532530	      0.00189126	     12.15718931	     19.05007497	    -92.67935237	      5.35694829	      7.17575198	     56.87863495	     -9.57524166	     11.16605070	    -93.67142390	    -76.49015512	    -86.04424102	      7.80612372	     63.78215047	     -4.99673328	      6.00537458
      0.05660377	     -2.29166968	     -3.27382387	     97.17272028	      0.17998428	      0.76208951	      0.78633446	      2.13522970	     -3.68803690	    -14.24399083	      9.45129672	      0.16495625	     34.13687079	     13.16045486	      0.00000000	      4.39444575	      3.29692922	      7.94557256	      7.46919121	      0.13036198	     31.11490708	      0.60859755	      0.00000000	      0.20081289	     -0.02241503	     -1.00310571	      0.37292961	     -0.02981199	     -1.06579982	      0.32991549	     -0.05449990	     -1.06579982	      0.22950905	     -0.05449990	     -0.87771750	      0.18647485	     -0.04570872	     -0.81502339	      0.11474448	     -0.03472088	     -0.75232929	      1.43438638	     -0.25356328	     -5.57897305	      0.00000000	      0.00000000	     16.36081032	      0.01790994	     11.56098729	     18.21204555	    -92.74373495	      6.05183369	      7.55806524	     56.84560640	     -8.87194904	     11.39592614	    -94.02580892	    -77.57511984	    -85.00672718	      7.58824674	     64.51606988	     -3.58843931	      4.99281450
